<svg xmlns="http://www.w3.org/2000/svg" width="141" height="22" fill="none"><path fill="#000" d="M.913 11.652v-.945c0-2.564.648-4.48 1.944-5.747C4.161 3.692 5.87 3.059 7.981 3.059c1.991 0 3.57.504 4.738 1.514 1.167 1.003 1.75 2.353 1.75 4.05v.473h-3.867v-.602c0-.852-.218-1.493-.655-1.923-.43-.43-1.088-.644-1.976-.644-.924 0-1.658.311-2.202.934-.545.623-.817 1.687-.817 3.19v2.257c0 1.418.265 2.463.795 3.136.537.673 1.296 1.01 2.277 1.01.853 0 1.486-.233 1.902-.698.422-.466.648-1.12.676-1.966v-.505h3.868v.537c-.043 1.633-.638 2.954-1.784 3.964-1.138 1.003-2.707 1.504-4.705 1.504-2.14 0-3.856-.637-5.145-1.912-1.282-1.282-1.923-3.19-1.923-5.726zM16.167 19V2.715h3.77V19h-3.77zm5.683-5.382v-.344c0-1.725.544-3.1 1.632-4.125 1.096-1.03 2.496-1.546 4.2-1.546 1.705 0 3.044.487 4.018 1.46.974.974 1.461 2.32 1.461 4.04v1.192h-8.84v-2.009h5.156v-.215c0-.53-.158-.97-.473-1.321-.315-.358-.77-.537-1.364-.537-.666 0-1.178.247-1.537.741-.35.487-.526 1.178-.526 2.073v.785c0 .902.193 1.6.58 2.094.387.487.942.73 1.665.73.537 0 1-.135 1.386-.407.394-.273.709-.588.945-.946l2.804 1.472c-.358.788-.977 1.414-1.858 1.88-.881.458-1.948.687-3.201.687-1.87 0-3.345-.515-4.426-1.547-1.082-1.03-1.622-2.417-1.622-4.157zm12.547 2.138c0-1.253.48-2.191 1.439-2.815.96-.623 2.177-.938 3.652-.945h2.17v-.57c0-.436-.11-.783-.333-1.041-.222-.265-.608-.398-1.16-.398-.559 0-.956.108-1.192.323a1.08 1.08 0 0 0-.355.838v.204h-3.63v-.215c0-1.046.497-1.894 1.492-2.546.996-.652 2.289-.978 3.878-.978 1.597 0 2.84.312 3.728.935.888.623 1.332 1.6 1.332 2.932v5.06c0 .444.04.87.118 1.278.086.401.204.738.355 1.01V19h-3.717a2.953 2.953 0 0 1-.226-.623 7.565 7.565 0 0 1-.129-.752c-.207.401-.626.763-1.257 1.085-.622.322-1.392.483-2.31.483-1.116 0-2.04-.283-2.77-.848-.724-.566-1.085-1.429-1.085-2.59zm3.748-.344c0 .43.122.777.366 1.042.25.265.64.398 1.17.398.588 0 1.064-.183 1.43-.548a1.89 1.89 0 0 0 .547-1.375v-.86h-1.46c-.71 0-1.229.115-1.558.344-.33.222-.495.555-.495 1zM47.953 19V7.925h3.631l.054 1.235h.053c.244-.415.648-.763 1.214-1.042.573-.286 1.221-.43 1.945-.43 1.145 0 2.087.323 2.825.967.737.645 1.106 1.784 1.106 3.416V19h-3.76v-6.875c0-.602-.128-1.02-.386-1.257-.25-.243-.609-.365-1.075-.365-.379 0-.74.114-1.084.344a2.04 2.04 0 0 0-.763.956V19h-3.76z"/><path fill="#4690FF" d="M61.38 19V3.36h10.474v2.932H65.26v3.792h5.78v2.836h-5.78V19h-3.88zm12.193 0V2.715h3.77V19h-3.77zm5.683-5.371v-.355c0-1.747.558-3.13 1.676-4.146 1.117-1.024 2.563-1.536 4.34-1.536 1.775 0 3.219.512 4.329 1.536 1.117 1.017 1.675 2.399 1.675 4.146v.355c0 1.755-.558 3.14-1.675 4.157-1.11 1.017-2.553 1.525-4.33 1.525-1.783 0-3.233-.508-4.35-1.525-1.11-1.017-1.665-2.403-1.665-4.157zm3.835-.57v.785c0 .93.19 1.618.57 2.062.386.437.923.655 1.61.655.688 0 1.222-.218 1.601-.655.38-.444.57-1.131.57-2.062v-.784c0-.931-.197-1.615-.591-2.052-.387-.437-.913-.655-1.58-.655-.673 0-1.206.218-1.6.655-.387.437-.58 1.12-.58 2.052zm8.937-5.134h3.76l1.483 5.693c.064.272.118.527.16.763.05.236.094.487.13.752h.075c.028-.265.06-.516.096-.752.043-.236.1-.49.172-.763l1.59-5.693h3.62l1.665 5.715c.079.272.14.526.183.762.05.237.097.484.14.742h.064c.036-.258.075-.505.118-.742.043-.236.093-.49.151-.762l1.482-5.715h3.276L106.906 19h-3.727l-1.773-5.736a11.741 11.741 0 0 1-.193-.752c-.05-.258-.093-.512-.129-.763h-.043a16.287 16.287 0 0 1-.333 1.515L99.086 19h-3.781L92.028 7.925zm28.145 1.627a9.582 9.582 0 0 0 .846 5.278l.963-1.666.13-.275a7.913 7.913 0 0 1 15.064-4.833l1.346-1.238a9.619 9.619 0 0 0-7.624-5.645 9.624 9.624 0 0 0-10.725 8.38z"/><path fill="#4690FF" d="M130.429 4.994a5.77 5.77 0 0 0-1.952.091l.862 1.594a4.064 4.064 0 0 1 4.422 4.517l1.645-1.513a5.777 5.777 0 0 0-4.977-4.69zm-5.558 8.858 1.224-1.3a4.06 4.06 0 0 0 4.264 2.188l.867 1.562a5.76 5.76 0 0 1-2.205.154 5.76 5.76 0 0 1-4.15-2.604zm7.189-2.84a2.353 2.353 0 0 0-1.768-2.57l1.654 3.06c.054-.156.093-.32.114-.49zm-4.046-.497 1.412 2.543a2.355 2.355 0 0 1-2.015-1.903l.603-.64z"/><path fill="#4690FF" d="M128.761 18.579a7.913 7.913 0 0 0 8.764-6.52l1.797-2.074a9.624 9.624 0 0 1-17.138 6.72l1.188-1.262a7.891 7.891 0 0 0 5.389 3.136z"/><path fill="#000" fill-rule="evenodd" d="M136 2v3.5h-6l-4.5 4 3.5 6h6.5V19h-9l-6-10 8-7h7.5z" clip-rule="evenodd"/></svg>